# xmcd
#
# Track frame offsets:
#	150
#	13845
#	29727
#	42027
#	54312
#	68795
#	80627
#	94005
#	109075
#	119560
#
# Disc length: 1822 seconds
#
# Revision: 2
# Processed by: cddbd v1.5.2PL0 Copyright (c) Steve Scherf et al.
# Submitted via: audiograbber 1.83.01
#
DISCID=83071c0a
DTITLE=Ron Elliott - Just As I Am
DYEAR=1900
DGENRE=Gospel
TTITLE0=Just As I Am
TTITLE1=It's No Secret
TTITLE2=Lifes Railway to Heaven
TTITLE3=Whispering Hope
TTITLE4=What A Friend We Have in Jesus
TTITLE5=Lucinda's Prayer
TTITLE6=Mansion on the Hilltop
TTITLE7=Family Bible
TTITLE8=Who At My Door is Standing
TTITLE9=How Great Thou Art
EXTD=Karma King Records - Great Steel Guitar by a master player
EXTT0=
EXTT1=
EXTT2=
EXTT3=
EXTT4=
EXTT5=
EXTT6=
EXTT7=
EXTT8=
EXTT9=
PLAYORDER=
